<svg width="236" height="99" viewBox="0 0 236 99" fill="none" xmlns="http://www.w3.org/2000/svg">
<path d="M38.4764 97.5021V81.4333H0V63.8666L42.3778 1.49794H62.2887V62.5048H74.6657V81.4333H62.2887V97.5021H38.4764ZM38.4764 62.5048V36.7675L21.3907 62.5048H38.4764Z" fill="#1B254A"/>
<path d="M116.856 99C105.107 99 96.1384 94.6878 89.9499 86.0633C83.7614 77.348 80.6671 65.0468 80.6671 49.1596C80.6671 33.1816 83.7614 21.0165 89.9499 12.6644C96.1384 4.22146 105.107 0 116.856 0C128.606 0 137.575 4.22146 143.763 12.6644C149.952 21.0165 153.046 33.1362 153.046 49.0234C153.046 65.0014 149.952 77.348 143.763 86.0633C137.575 94.6878 128.606 99 116.856 99ZM116.856 79.1183C121.162 79.1183 124.345 76.7579 126.408 72.0371C128.561 67.2256 129.637 59.5543 129.637 49.0234C129.637 38.5832 128.561 31.1389 126.408 26.6905C124.345 22.1513 121.162 19.8817 116.856 19.8817C112.551 19.8817 109.323 22.1513 107.17 26.6905C105.107 31.1389 104.076 38.5832 104.076 49.0234C104.076 59.5543 105.107 67.2256 107.17 72.0371C109.323 76.7579 112.551 79.1183 116.856 79.1183Z" fill="#1B254A"/>
<path d="M199.811 97.5021V81.4333H161.334V63.8666L203.712 1.49794H223.623V62.5048H236V81.4333H223.623V97.5021H199.811ZM199.811 62.5048V36.7675L182.725 62.5048H199.811Z" fill="#1B254A"/>
</svg>
