<svg width="22" height="20" viewBox="0 0 22 20" fill="none" xmlns="http://www.w3.org/2000/svg">
<path d="M6.79321 7.86196C6.67361 7.71624 6.6125 7.53124 6.62174 7.34295C6.63099 7.15466 6.70994 6.97655 6.84324 6.84324C6.97655 6.70994 7.15466 6.63099 7.34295 6.62174C7.53124 6.6125 7.71624 6.67361 7.86196 6.79321L10.25 9.19062V1.25C10.25 1.05109 10.329 0.860322 10.4697 0.71967C10.6103 0.579018 10.8011 0.5 11 0.5C11.1989 0.5 11.3897 0.579018 11.5303 0.71967C11.671 0.860322 11.75 1.05109 11.75 1.25V9.19062L14.138 6.79321C14.2838 6.67361 14.4688 6.6125 14.657 6.62174C14.8453 6.63099 15.0235 6.70994 15.1568 6.84324C15.2901 6.97655 15.369 7.15466 15.3783 7.34295C15.3875 7.53124 15.3264 7.71624 15.2068 7.86196L11.5344 11.5344C11.391 11.673 11.1994 11.7505 11 11.7505C10.8006 11.7505 10.609 11.673 10.4656 11.5344L6.79321 7.86196ZM21.5 11.75V17.75C21.5 18.1478 21.342 18.5294 21.0607 18.8107C20.7794 19.092 20.3978 19.25 20 19.25H2C1.60218 19.25 1.22064 19.092 0.93934 18.8107C0.658035 18.5294 0.5 18.1478 0.5 17.75V11.75C0.5 11.3522 0.658035 10.9706 0.93934 10.6893C1.22064 10.408 1.60218 10.25 2 10.25H6.9125C6.96182 10.2484 7.01088 10.2577 7.05624 10.2771C7.10159 10.2966 7.14213 10.3257 7.175 10.3625L9.40625 12.5938C9.82965 13.0151 10.4027 13.2516 11 13.2516C11.5973 13.2516 12.1704 13.0151 12.5938 12.5938L14.825 10.3625C14.8579 10.3257 14.8984 10.2966 14.9438 10.2771C14.9891 10.2577 15.0382 10.2484 15.0875 10.25H20C20.3978 10.25 20.7794 10.408 21.0607 10.6893C21.342 10.9706 21.5 11.3522 21.5 11.75ZM17.75 14.75C17.75 14.5275 17.684 14.31 17.5604 14.125C17.4368 13.94 17.2611 13.7958 17.0555 13.7106C16.85 13.6255 16.6238 13.6032 16.4055 13.6466C16.1873 13.69 15.9868 13.7972 15.8295 13.9545C15.6722 14.1118 15.565 14.3123 15.5216 14.5305C15.4782 14.7488 15.5005 14.975 15.5856 15.1805C15.6708 15.3861 15.815 15.5618 16 15.6854C16.185 15.809 16.4025 15.875 16.625 15.875C16.9234 15.875 17.2095 15.7565 17.4205 15.5455C17.6315 15.3345 17.75 15.0484 17.75 14.75Z" fill="#C6CBD6"/>
</svg>
