<svg width="19" height="13" viewBox="0 0 19 13" fill="none" xmlns="http://www.w3.org/2000/svg">
<path fill-rule="evenodd" clip-rule="evenodd" d="M11.5636 12.728C11.2121 12.3654 11.2121 11.7775 11.5636 11.4148L15.4272 7.42857L0.9 7.42857C0.402945 7.42857 5.23415e-07 7.01283 5.68248e-07 6.5C6.13082e-07 5.98716 0.402945 5.57143 0.9 5.57143L15.4272 5.57143L11.5636 1.58517C11.2121 1.22254 11.2121 0.634601 11.5636 0.271972C11.9151 -0.0906578 12.4849 -0.0906578 12.8364 0.271972L18.2364 5.8434C18.5879 6.20603 18.5879 6.79397 18.2364 7.1566L12.8364 12.728C12.4849 13.0907 11.9151 13.0907 11.5636 12.728Z" fill="white"/>
</svg>
