<svg width="32" height="32" viewBox="0 0 32 32" fill="none" xmlns="http://www.w3.org/2000/svg">
<path fill-rule="evenodd" clip-rule="evenodd" d="M3 16C3 8.82272 8.82272 3 16 3C23.1773 3 29 8.82272 29 16C29 23.1773 23.1773 29 16 29C8.82272 29 3 23.1773 3 16ZM16 5C9.92728 5 5 9.92728 5 16C5 22.0727 9.92728 27 16 27C22.0727 27 27 22.0727 27 16C27 9.92728 22.0727 5 16 5Z" fill="#3546E9"/>
<path fill-rule="evenodd" clip-rule="evenodd" d="M11 15H12H15H17H20H21C21.5523 15 22 15.4477 22 16C22 16.5523 21.5523 17 21 17H20H17H15H12H11C10.4477 17 10 16.5523 10 16C10 15.4477 10.4477 15 11 15Z" fill="#3546E9"/>
</svg>
