<svg width="24" height="23" viewBox="0 0 24 23" fill="none" xmlns="http://www.w3.org/2000/svg">
<path d="M20.25 19.32C20.1515 19.3201 20.0539 19.3023 19.9629 19.2676C19.8719 19.2329 19.7893 19.182 19.7198 19.1177L3.2198 3.93774C3.08509 3.80729 3.01109 3.63358 3.0136 3.45366C3.0161 3.27373 3.0949 3.10182 3.23321 2.97459C3.37151 2.84735 3.55836 2.77485 3.75393 2.77255C3.94951 2.77024 4.13832 2.83832 4.28011 2.96226L20.7801 18.1423C20.8849 18.2388 20.9563 18.3617 20.9852 18.4955C21.0141 18.6293 20.9993 18.768 20.9425 18.894C20.8858 19.02 20.7897 19.1278 20.6665 19.2036C20.5432 19.2794 20.3982 19.3199 20.25 19.32ZM11.984 16.56C10.0392 16.56 8.16371 16.0304 6.40965 14.9859C4.81261 14.0372 3.37496 12.6783 2.25183 11.0616V11.0581C3.18652 9.82603 4.21027 8.78413 5.30996 7.94406C5.31991 7.9364 5.32802 7.92694 5.33379 7.91625C5.33956 7.90557 5.34285 7.8939 5.34347 7.88199C5.34409 7.87007 5.34201 7.85817 5.33737 7.84703C5.33273 7.83589 5.32563 7.82575 5.31652 7.81727L4.38277 6.95951C4.36618 6.94412 4.34389 6.93504 4.32035 6.93408C4.29682 6.93312 4.27375 6.94035 4.25574 6.95434C3.08761 7.85996 2.0034 8.97086 1.01761 10.2715C0.848014 10.4955 0.754608 10.7607 0.749266 11.0336C0.743924 11.3065 0.826888 11.5748 0.987615 11.8042C2.22558 13.5865 3.81886 15.0877 5.59449 16.1447C7.59371 17.3362 9.74527 17.94 11.984 17.94C13.1924 17.9365 14.3923 17.7533 15.5371 17.3975C15.5522 17.3928 15.5658 17.3846 15.5765 17.3737C15.5872 17.3628 15.5947 17.3496 15.5983 17.3354C15.602 17.3211 15.6015 17.3062 15.5972 17.2921C15.5928 17.2779 15.5845 17.2651 15.5732 17.2547L14.5617 16.3241C14.5384 16.3032 14.5096 16.2882 14.4781 16.2807C14.4466 16.2731 14.4136 16.2732 14.3821 16.281C13.5987 16.4666 12.793 16.5603 11.984 16.56ZM23.0081 10.2896C21.7678 8.52495 20.1586 7.02592 18.3548 5.95427C16.3593 4.76747 14.1562 4.14 11.984 4.14C10.7884 4.14195 9.60169 4.32899 8.47355 4.69329C8.45852 4.69811 8.44507 4.70636 8.43446 4.71728C8.42386 4.72819 8.41645 4.74141 8.41293 4.75569C8.40941 4.76997 8.40991 4.78484 8.41436 4.7989C8.41882 4.81295 8.42709 4.82573 8.4384 4.83604L9.44855 5.76538C9.47207 5.78665 9.50127 5.80183 9.5332 5.8094C9.56513 5.81698 9.59867 5.81667 9.63043 5.80851C10.3978 5.61754 11.1891 5.52053 11.984 5.52C13.8914 5.52 15.7612 6.05604 17.5411 7.11562C19.1681 8.08162 20.6226 9.4392 21.7486 11.04L21.7498 11.0434L21.7486 11.0469C20.9312 12.2306 19.917 13.289 18.7429 14.1834C18.7329 14.191 18.7247 14.2005 18.7188 14.2112C18.7129 14.2219 18.7096 14.2336 18.7089 14.2456C18.7083 14.2575 18.7103 14.2695 18.715 14.2807C18.7196 14.2919 18.7267 14.3021 18.7359 14.3106L19.6687 15.1684C19.6852 15.1837 19.7074 15.1928 19.7308 15.1938C19.7542 15.1948 19.7772 15.1878 19.7953 15.174C21.0487 14.203 22.1337 13.0617 23.0128 11.7895C23.1682 11.5653 23.2503 11.3048 23.2495 11.0389C23.2486 10.7731 23.1649 10.513 23.0081 10.2896Z" fill="#1B254A"/>
<path d="M12 6.89999C11.6629 6.89983 11.3269 6.93455 10.9983 7.00349C10.9817 7.00667 10.9663 7.01392 10.9538 7.02448C10.9414 7.03504 10.9322 7.04852 10.9274 7.06347C10.9226 7.07843 10.9223 7.09431 10.9265 7.10941C10.9307 7.12452 10.9393 7.13829 10.9514 7.14926L16.229 12.0034C16.241 12.0145 16.2559 12.0224 16.2723 12.0263C16.2888 12.0302 16.306 12.0299 16.3223 12.0255C16.3385 12.021 16.3532 12.0126 16.3647 12.0012C16.3761 11.9897 16.384 11.9756 16.3875 11.9603C16.5377 11.354 16.5376 10.7243 16.3871 10.118C16.2365 9.51176 15.9395 8.94449 15.5179 8.45833C15.0964 7.97218 14.5613 7.57963 13.9522 7.30985C13.3432 7.04007 12.6759 6.89998 12 6.89999ZM7.77091 10.0766C7.75899 10.0655 7.74402 10.0576 7.7276 10.0537C7.71118 10.0498 7.69392 10.0501 7.67767 10.0545C7.66141 10.059 7.64676 10.0674 7.63528 10.0788C7.6238 10.0903 7.61592 10.1044 7.61247 10.1197C7.44248 10.803 7.46382 11.5147 7.67451 12.1883C7.88519 12.8619 8.27832 13.4753 8.81704 13.9709C9.35577 14.4665 10.0224 14.8282 10.7546 15.022C11.4868 15.2158 12.2604 15.2355 13.0031 15.0791C13.0197 15.0759 13.035 15.0687 13.0475 15.0581C13.06 15.0475 13.0691 15.0341 13.0739 15.0191C13.0787 15.0041 13.0791 14.9883 13.0748 14.9732C13.0706 14.9581 13.062 14.9443 13.05 14.9333L7.77091 10.0766Z" fill="#1B254A"/>
</svg>
