<svg width="24" height="25" viewBox="0 0 24 25" fill="none" xmlns="http://www.w3.org/2000/svg">
<path fill-rule="evenodd" clip-rule="evenodd" d="M21.9923 12.0661C21.9856 11.8581 21.938 11.6535 21.8522 11.4641C21.7663 11.2747 21.644 11.1042 21.4922 10.9624C21.3403 10.8206 21.162 10.7104 20.9675 10.638C20.773 10.5656 20.5662 10.5326 20.3589 10.5407C20.1806 10.5407 20.0019 10.5434 19.8231 10.5461C19.4652 10.5516 19.1068 10.557 18.7498 10.5407C18.5551 10.5407 18.257 10.3943 18.2084 10.2356C18.1909 10.1234 18.1977 10.0087 18.2281 9.89921C18.2585 9.78976 18.312 9.68811 18.3848 9.60109C18.5931 9.35337 18.8259 9.12581 19.059 8.89805C19.2106 8.74996 19.3622 8.60178 19.5072 8.44792C19.6645 8.30011 19.7899 8.12151 19.8756 7.92316C19.9613 7.72481 20.0055 7.51093 20.0055 7.29475C20.0055 7.07857 19.9613 6.86469 19.8756 6.66634C19.7899 6.46799 19.6645 6.28938 19.5072 6.14157C19.2521 5.85726 18.989 5.60474 18.7205 5.34698C18.7009 5.32816 18.6813 5.30931 18.6616 5.29042C18.5102 5.1314 18.3282 5.00483 18.1267 4.91835C17.9252 4.83187 17.7082 4.78728 17.489 4.78728C17.2698 4.78728 17.0529 4.83187 16.8513 4.91835C16.6498 5.00483 16.4678 5.1314 16.3164 5.29042C16.1767 5.42376 16.0408 5.5617 15.9049 5.69959C15.6739 5.93399 15.443 6.16825 15.194 6.37953C15.113 6.45515 15.0168 6.51252 14.9119 6.54777C14.807 6.58303 14.6957 6.59535 14.5857 6.58393C14.4962 6.51516 14.4226 6.42772 14.3701 6.32764C14.3176 6.22756 14.2873 6.11723 14.2815 6.00429C14.2511 5.65854 14.2612 5.31008 14.2714 4.96162C14.2764 4.78739 14.2815 4.61316 14.2815 4.43927C14.2946 4.21947 14.2613 3.99937 14.184 3.79331C14.1066 3.58725 13.9868 3.39984 13.8325 3.24328C13.6781 3.08672 13.4926 2.96452 13.288 2.88465C13.0834 2.80477 12.8643 2.769 12.6451 2.77967H11.4953C10.455 2.77967 9.81928 3.42643 9.79799 4.48198C9.79799 4.62108 9.79942 4.76039 9.80085 4.8998C9.80494 5.29849 9.80904 5.69799 9.77974 6.09581C9.76918 6.19578 9.73636 6.29209 9.68371 6.37763C9.63107 6.46317 9.55993 6.53576 9.47557 6.59003C9.37128 6.62056 9.26105 6.62456 9.15484 6.60166C9.04863 6.57875 8.94978 6.52967 8.86722 6.45885C8.60474 6.23043 8.36062 5.97991 8.11623 5.7291C7.97546 5.58463 7.83459 5.44006 7.69007 5.29957C7.53891 5.14017 7.35702 5.01324 7.15545 4.92651C6.95387 4.83978 6.73682 4.79506 6.51748 4.79506C6.29814 4.79506 6.08109 4.83978 5.87952 4.92651C5.67794 5.01324 5.49605 5.14017 5.34489 5.29957C5.08026 5.55584 4.82172 5.8182 4.56317 6.08056C3.8149 6.84934 3.80882 7.75541 4.56317 8.52114C4.69661 8.65947 4.83459 8.79365 4.9724 8.92767C5.20841 9.15718 5.4439 9.38619 5.65515 9.63465C5.72527 9.71796 5.77544 9.81626 5.8018 9.92202C5.82816 10.0278 5.83002 10.1382 5.80724 10.2448C5.74352 10.3325 5.66154 10.4051 5.56699 10.4578C5.47244 10.5105 5.36759 10.5419 5.25973 10.5499C4.89258 10.5763 4.52408 10.5675 4.15603 10.5587C3.97217 10.5543 3.78843 10.5499 3.60502 10.5499C3.18572 10.5482 2.78273 10.7127 2.48368 11.0075C2.18464 11.3023 2.01372 11.7035 2.00811 12.124C1.99594 12.3986 2 12.6759 2.00406 12.9532C2.00608 13.0918 2.00811 13.2304 2.00811 13.3687C1.99824 13.5924 2.03479 13.8157 2.11544 14.0244C2.1961 14.2332 2.3191 14.4229 2.47665 14.5815C2.63421 14.7401 2.82288 14.8641 3.03073 14.9458C3.23858 15.0274 3.46107 15.0649 3.68411 15.0558C3.85219 15.0558 4.02061 15.0524 4.18926 15.049C4.52723 15.0422 4.8661 15.0354 5.20498 15.0558C5.32168 15.0627 5.43578 15.0933 5.54034 15.1458C5.64491 15.1982 5.73778 15.2714 5.81332 15.3609C5.88632 15.4981 5.73728 15.8185 5.59736 15.971C5.38762 16.2196 5.15397 16.4478 4.91964 16.6767C4.78016 16.813 4.64044 16.9495 4.50537 17.0906C4.34919 17.2394 4.22482 17.4185 4.13983 17.617C4.05484 17.8155 4.01102 18.0293 4.01102 18.2453C4.01102 18.4614 4.05484 18.6751 4.13983 18.8736C4.22482 19.0722 4.34919 19.2512 4.50537 19.4C4.7913 19.7051 5.0833 20.0102 5.38444 20.2817C5.53277 20.4383 5.71133 20.5631 5.90926 20.6483C6.10718 20.7335 6.32033 20.7775 6.53573 20.7775C6.75113 20.7775 6.96428 20.7335 7.16221 20.6483C7.36013 20.5631 7.53869 20.4383 7.68703 20.2817C7.81823 20.1554 7.94649 20.0261 8.07463 19.897C8.31484 19.655 8.5546 19.4134 8.81247 19.1926C8.97672 19.0553 9.29306 18.8875 9.42082 18.9638C9.51478 19.037 9.59252 19.1291 9.64907 19.2342C9.70563 19.3392 9.73977 19.4549 9.74932 19.5739C9.77618 19.8853 9.7734 20.1995 9.77062 20.5134C9.76836 20.7684 9.7661 21.0232 9.77974 21.2762C9.79632 21.6811 9.96945 22.0636 10.2624 22.3427C10.5554 22.6217 10.9452 22.7754 11.3493 22.7711C11.5023 22.7711 11.6546 22.7728 11.807 22.7745C12.1122 22.7778 12.4178 22.7812 12.7302 22.7711C13.1256 22.7607 13.5024 22.6003 13.7846 22.3224C14.0668 22.0444 14.2335 21.6695 14.2511 21.2732V20.3976C14.2252 20.1216 14.2252 19.8438 14.2511 19.5678C14.2937 19.3512 14.394 19.0522 14.5553 18.976C14.6632 18.958 14.7737 18.9643 14.8789 18.9943C14.9841 19.0244 15.0814 19.0775 15.1636 19.1499C15.4119 19.361 15.6389 19.5956 15.866 19.8303C16.0229 19.9924 16.1798 20.1546 16.3438 20.3091C16.4907 20.4567 16.6652 20.5738 16.8573 20.6537C17.0493 20.7336 17.2552 20.7747 17.4632 20.7747C17.6711 20.7747 17.877 20.7336 18.0691 20.6537C18.2611 20.5738 18.4356 20.4567 18.5825 20.3091C18.8867 20.0285 19.1756 19.7295 19.4616 19.4305C19.6276 19.2801 19.76 19.0961 19.8501 18.8908C19.9403 18.6854 19.9861 18.4632 19.9847 18.2389C19.9833 18.0145 19.9346 17.7929 19.8418 17.5887C19.749 17.3845 19.6143 17.2023 19.4464 17.054C19.318 16.922 19.1846 16.7934 19.0512 16.6648C18.8084 16.4308 18.5653 16.1964 18.3513 15.9405C18.2801 15.8517 18.2291 15.7483 18.2018 15.6377C18.1745 15.527 18.1715 15.4117 18.1932 15.2998C18.2418 15.1565 18.543 15.0375 18.7407 15.0253C19.05 15.0024 19.3604 15.0059 19.6706 15.0095C19.8972 15.0121 20.1237 15.0147 20.3498 15.007C20.7694 15.0168 21.1758 14.8596 21.4802 14.5698C21.7845 14.28 21.9621 13.881 21.974 13.4603C22.0065 12.9962 22.0085 12.5304 21.9801 12.0661H21.9923ZM11.9901 15.9168C13.6469 15.9168 14.9901 14.5736 14.9901 12.9167C14.9901 11.2599 13.6469 9.91675 11.9901 9.91675C10.3332 9.91675 8.99005 11.2599 8.99005 12.9167C8.99005 14.5736 10.3332 15.9168 11.9901 15.9168Z" fill="white"/>
</svg>
