<svg width="24" height="25" viewBox="0 0 24 25" fill="none" xmlns="http://www.w3.org/2000/svg">
<rect x="3.25" y="3.85339" width="17.5" height="17.8488" rx="2" fill="white"/>
<path fill-rule="evenodd" clip-rule="evenodd" d="M14.8256 8.85339C14.4788 8.85339 14.1977 9.13452 14.1977 9.4813C14.1977 9.82808 14.4788 10.1092 14.8256 10.1092H16.6062L13.1639 13.5515L13.1639 13.5515C13.1347 13.5807 13.1001 13.6038 13.062 13.6196C13.0239 13.6354 12.9831 13.6435 12.9419 13.6435C12.9006 13.6435 12.8598 13.6354 12.8217 13.6196C12.7836 13.6038 12.749 13.5807 12.7198 13.5515L12.7198 13.5515L11.2264 12.0581L11.2263 12.058C11.0806 11.9122 10.9075 11.7966 10.7171 11.7177C10.5266 11.6388 10.3225 11.5982 10.1163 11.5982C9.9101 11.5982 9.70595 11.6388 9.51547 11.7177C9.32502 11.7966 9.15197 11.9122 9.00621 12.058L9.00616 12.0581L5.43391 15.6303C5.1887 15.8755 5.1887 16.2731 5.43391 16.5183C5.67912 16.7635 6.07669 16.7635 6.3219 16.5183L9.8942 12.946L9.89426 12.946C9.92341 12.9168 9.95802 12.8937 9.99612 12.8779C10.0342 12.8621 10.075 12.854 10.1163 12.854C10.1575 12.854 10.1983 12.8621 10.2364 12.8779C10.2745 12.8937 10.3091 12.9168 10.3383 12.946L10.3384 12.946L11.8317 14.4394C11.9775 14.5852 12.1506 14.7009 12.3411 14.7798C12.5315 14.8587 12.7357 14.8993 12.9419 14.8993C13.148 14.8993 13.3522 14.8587 13.5427 14.7798C13.7331 14.7009 13.9062 14.5852 14.052 14.4394L17.4942 10.9972V12.7778C17.4942 13.1246 17.7753 13.4057 18.1221 13.4057C18.4689 13.4057 18.75 13.1246 18.75 12.7778V9.4813C18.75 9.13452 18.4689 8.85339 18.1221 8.85339H14.8256Z" fill="#1B254A"/>
</svg>
