<svg width="24" height="25" viewBox="0 0 24 25" fill="none" xmlns="http://www.w3.org/2000/svg">
<path d="M22.6791 2.29898C22.5016 2.25677 22.3149 2.27956 22.1527 2.3632L21.0001 2.93883L19.8376 2.35758C19.7334 2.30551 19.6186 2.27841 19.5022 2.27841C19.3857 2.27841 19.2709 2.30551 19.1668 2.35758L17.9897 2.9393L16.8282 2.35758C16.7237 2.30513 16.6085 2.27782 16.4916 2.27782C16.3748 2.27782 16.2595 2.30513 16.1551 2.35758L15.0001 2.93742L13.854 2.35898C13.7498 2.30618 13.6348 2.27843 13.518 2.27794C13.4012 2.27745 13.2859 2.30424 13.1813 2.35617L12.0001 2.93977L10.8376 2.35711C10.7332 2.30507 10.6183 2.27798 10.5017 2.27798C10.3851 2.27798 10.2702 2.30507 10.1658 2.35711L9.00006 2.93883L7.83569 2.35711C7.68558 2.28187 7.51456 2.25917 7.35003 2.29265C7.18549 2.32614 7.03695 2.41387 6.92819 2.5418C6.81096 2.68151 6.74776 2.85865 6.75006 3.04102V14.2779L6.7524 14.2802H15.7501C16.1479 14.2802 16.5294 14.4383 16.8107 14.7196C17.092 15.0009 17.2501 15.3824 17.2501 15.7802V20.6529C17.2501 22.1027 18.8002 23.2779 20.2501 23.2779H20.8126C21.459 23.2779 22.079 23.0211 22.5361 22.564C22.9933 22.1068 23.2501 21.4869 23.2501 20.8404V3.02789C23.2502 2.86003 23.194 2.69697 23.0905 2.56482C22.987 2.43267 22.8421 2.33906 22.6791 2.29898ZM19.5001 12.0279H13.5235C13.1185 12.0279 12.7688 11.7166 12.751 11.3116C12.7464 11.2104 12.7624 11.1093 12.798 11.0145C12.8336 10.9196 12.888 10.8329 12.958 10.7597C13.028 10.6865 13.1122 10.6281 13.2053 10.5883C13.2985 10.5485 13.3987 10.5279 13.5001 10.5279H19.4766C19.8816 10.5279 20.2313 10.8391 20.2491 11.2441C20.2537 11.3454 20.2377 11.4464 20.2021 11.5413C20.1665 11.6362 20.1121 11.7228 20.0421 11.7961C19.9721 11.8693 19.888 11.9276 19.7948 11.9675C19.7016 12.0073 19.6014 12.0279 19.5001 12.0279ZM19.5001 8.27789H10.5235C10.1185 8.27789 9.76881 7.96664 9.751 7.56164C9.74644 7.46043 9.76243 7.35934 9.79802 7.26447C9.83361 7.16961 9.88804 7.08294 9.95805 7.0097C10.028 6.93645 10.1122 6.87815 10.2053 6.83831C10.2985 6.79847 10.3987 6.77792 10.5001 6.77789H19.4766C19.8816 6.77789 20.2313 7.08914 20.2491 7.49414C20.2537 7.59536 20.2377 7.69645 20.2021 7.79131C20.1665 7.88617 20.1121 7.97284 20.0421 8.04609C19.9721 8.11933 19.888 8.17763 19.7948 8.21747C19.7016 8.25732 19.6014 8.27787 19.5001 8.27789Z" fill="white"/>
<path d="M15.75 20.6528V16.5278C15.75 16.3289 15.671 16.1382 15.5303 15.9975C15.3897 15.8568 15.1989 15.7778 15 15.7778H2.25C1.85215 15.7791 1.47098 15.9378 1.18988 16.2194C0.908777 16.5009 0.750618 16.8823 0.75 17.2802C0.75 19.6497 1.02094 20.635 1.42781 21.385C2.11828 22.6586 3.36844 23.2778 5.25 23.2778H16.7663C16.8032 23.2779 16.8394 23.2669 16.8702 23.2465C16.901 23.226 16.9251 23.1968 16.9394 23.1627C16.9536 23.1286 16.9575 23.091 16.9505 23.0547C16.9435 23.0184 16.9258 22.9849 16.8998 22.9586C16.4564 22.5138 15.75 21.9185 15.75 20.6528Z" fill="white"/>
</svg>
