<svg width="22" height="22" viewBox="0 0 22 22" fill="none" xmlns="http://www.w3.org/2000/svg">
<path fill-rule="evenodd" clip-rule="evenodd" d="M0.5 3.5C4.68969 3.05281 7.15625 2.23719 11 0.5C14.8438 2.23719 17.3103 3.05281 21.5 3.5C21.5 7.13703 21.253 9.75125 20.3145 12.1489C19.5472 14.104 18.4104 15.893 16.9662 17.4181C14.6412 19.8866 12.0833 21.1869 11 21.5C9.91672 21.1869 7.35875 19.8866 5.03375 17.4181C3.58963 15.893 2.45282 14.104 1.68547 12.1489C0.747031 9.75125 0.5 7.13703 0.5 3.5ZM14.7912 7.20674L11.9979 10L14.793 12.7933C14.9255 12.9258 15 13.1056 15 13.2931C15 13.4806 14.9255 13.6604 14.793 13.793C14.6604 13.9255 14.4806 14 14.2931 14C14.1056 14 13.9258 13.9255 13.7933 13.793L11 10.9997L8.20674 13.793C8.07417 13.9255 7.89437 14 7.70689 14C7.51941 14 7.33961 13.9255 7.20704 13.793C7.07448 13.6604 7 13.4806 7 13.2931C7 13.1056 7.07448 12.9258 7.20704 12.7933L10.0003 10L7.20704 7.20674C7.07448 7.07417 7 6.89437 7 6.70689C7 6.51941 7.07448 6.33961 7.20704 6.20704C7.33961 6.07448 7.51941 6 7.70689 6C7.89437 6 8.07417 6.07448 8.20674 6.20704L11 9.00031L13.7933 6.20704C13.9258 6.07471 14.1055 6.00046 14.2929 6.00062C14.4802 6.00079 14.6597 6.07536 14.7921 6.20793C14.9244 6.34049 14.9987 6.5202 14.9985 6.70751C14.9983 6.89483 14.9238 7.0744 14.7912 7.20674Z" fill="#C91919"/>
</svg>
