<svg width="22" height="22" viewBox="0 0 22 22" fill="none" xmlns="http://www.w3.org/2000/svg">
<path d="M21.4561 4.22001C21.4455 4.05247 21.379 3.89333 21.2672 3.76806C21.1555 3.64279 21.0049 3.55864 20.8397 3.52907C16.785 2.80157 15.0923 2.27563 11.3086 0.56657C11.2115 0.522693 11.1062 0.5 10.9997 0.5C10.8931 0.5 10.7878 0.522693 10.6907 0.56657C6.907 2.27563 5.21434 2.80157 1.15965 3.52907C0.994404 3.55864 0.843853 3.64279 0.732097 3.76806C0.620341 3.89333 0.553843 4.05247 0.543247 4.22001C0.362779 7.08454 0.747622 9.7536 1.6884 12.1531C2.4588 14.1104 3.59894 15.901 5.04653 17.427C7.55294 20.0863 10.214 21.2413 10.7217 21.4456C10.9021 21.5186 11.1038 21.5186 11.2842 21.4456C11.7918 21.2413 14.4529 20.0863 16.9593 17.427C18.4046 15.9004 19.5425 14.1099 20.3109 12.1531C21.2517 9.7536 21.6365 7.08454 21.4561 4.22001ZM15.3154 7.74079L10.1217 13.7408C10.0549 13.8182 9.97301 13.8811 9.88104 13.9256C9.78906 13.9702 9.68895 13.9955 9.58684 14H9.5559C9.35961 14.0001 9.17113 13.9231 9.0309 13.7858L6.72465 11.5264C6.65429 11.4575 6.5982 11.3753 6.55958 11.2847C6.52096 11.1941 6.50057 11.0968 6.49957 10.9983C6.49755 10.7993 6.57463 10.6077 6.71387 10.4656C6.85311 10.3235 7.0431 10.2426 7.24203 10.2405C7.44097 10.2385 7.63256 10.3156 7.77465 10.4549L9.50903 12.1559L14.1825 6.75923C14.2469 6.68474 14.3254 6.62368 14.4135 6.57953C14.5015 6.53538 14.5974 6.50901 14.6956 6.50191C14.7939 6.49481 14.8925 6.50714 14.986 6.53818C15.0795 6.56922 15.166 6.61837 15.2404 6.68282C15.3149 6.74727 15.376 6.82576 15.4201 6.91381C15.4643 7.00186 15.4907 7.09774 15.4978 7.19598C15.5048 7.29422 15.4925 7.3929 15.4615 7.48638C15.4304 7.57985 15.3813 7.6663 15.3168 7.74079H15.3154Z" fill="#329B0D"/>
</svg>
