<svg width="24" height="25" viewBox="0 0 24 25" fill="none" xmlns="http://www.w3.org/2000/svg">
<path d="M4.47656 5.65283H19.4766C19.6518 5.65275 19.8268 5.66386 20.0006 5.68611C19.9417 5.27257 19.7997 4.87523 19.583 4.51807C19.3664 4.16091 19.0797 3.85132 18.7402 3.60796C18.4007 3.36459 18.0154 3.19251 17.6076 3.10207C17.1998 3.01163 16.7779 3.00471 16.3673 3.08173L4.03125 5.18783H4.01719C3.24285 5.3359 2.55425 5.77401 2.09203 6.41267C2.7884 5.91736 3.622 5.65172 4.47656 5.65283ZM19.4766 6.77783H4.47656C3.68118 6.7787 2.91862 7.09505 2.3562 7.65747C1.79378 8.21989 1.47743 8.98245 1.47656 9.77783V18.7778C1.47743 19.5732 1.79378 20.3358 2.3562 20.8982C2.91862 21.4606 3.68118 21.777 4.47656 21.7778H19.4766C20.2719 21.777 21.0345 21.4606 21.5969 20.8982C22.1593 20.3358 22.4757 19.5732 22.4766 18.7778V9.77783C22.4757 8.98245 22.1593 8.21989 21.5969 7.65747C21.0345 7.09505 20.2719 6.7787 19.4766 6.77783ZM17.25 15.7778C16.9533 15.7778 16.6633 15.6899 16.4166 15.525C16.17 15.3602 15.9777 15.1259 15.8642 14.8519C15.7506 14.5778 15.7209 14.2762 15.7788 13.9852C15.8367 13.6942 15.9796 13.4269 16.1893 13.2172C16.3991 13.0074 16.6664 12.8645 16.9574 12.8067C17.2483 12.7488 17.5499 12.7785 17.824 12.892C18.0981 13.0055 18.3324 13.1978 18.4972 13.4445C18.662 13.6911 18.75 13.9812 18.75 14.2778C18.75 14.6757 18.592 15.0572 18.3107 15.3385C18.0294 15.6198 17.6478 15.7778 17.25 15.7778Z" fill="white"/>
<path d="M1.5 12.9419V8.27783C1.5 7.26205 2.0625 5.55908 4.01484 5.19018C5.67188 4.87939 7.3125 4.87939 7.3125 4.87939C7.3125 4.87939 8.39062 5.62939 7.5 5.62939C6.60938 5.62939 6.63281 6.77783 7.5 6.77783C8.36719 6.77783 7.5 7.87939 7.5 7.87939L4.00781 11.8403L1.5 12.9419Z" fill="white"/>
</svg>
